# xmcd CD database file generated by Grip 3.2.0
# 
# Track frame offsets:
#       150
#       20291
#       34578
#       54676
#       67872
#       75690
#       83361
#       97054
#       108656
#       119781
#       137388
#       150347
#       160595
#       178201
#       190513
#       203307
#       214107
#       225754
#       238743
#       256351
# 
# Disc length: 3512 seconds
# 
# Revision: 1
# Processed by: cddbd v1.5.1PL0 Copyright (c) Steve Scherf et al.
# Submitted via: Grip 3.2.0
# 
DISCID=f20db614
DTITLE=Hector Soto - Charango
DYEAR=1963
DGENRE=Other
TTITLE0=Rosita de Pica
TTITLE1=El Cachimbo
TTITLE2=Run Run Se Fue P'al Norte
TTITLE3=Mula Rosilla
TTITLE4=Caliche
TTITLE5=Los Pueblos Americanos
TTITLE6=Chichokholulo
TTITLE7=El Humahuaqueño - A Mi Palomita
TTITLE8=La Colorada
TTITLE9=El Condor Pasa
TTITLE10=Dos Palomitas
TTITLE11=Calama 2265
TTITLE12=Nascimiento del Charango
TTITLE13=Frente Al Charango
TTITLE14=Atacama La Grande
TTITLE15=Desde Lejos
TTITLE16=Ajllanquirita
TTITLE17=Lunita de Socaire
TTITLE18=Mayamtaña
TTITLE19=Puna Brava
EXTD=
EXTT0=
EXTT1=
EXTT2=
EXTT3=
EXTT4=
EXTT5=
EXTT6=
EXTT7=
EXTT8=
EXTT9=
EXTT10=
EXTT11=
EXTT12=
EXTT13=
EXTT14=
EXTT15=
EXTT16=
EXTT17=
EXTT18=
EXTT19=
PLAYORDER=
